<?xml version="1.0" encoding="UTF-8" standalone="no"?><!DOCTYPE svg PUBLIC "-//W3C//DTD SVG 1.1//EN" "http://www.w3.org/Graphics/SVG/1.1/DTD/svg11.dtd"><svg width="100%" height="100%" viewBox="0 0 504 465" version="1.1" xmlns="http://www.w3.org/2000/svg" xmlns:xlink="http://www.w3.org/1999/xlink" xml:space="preserve" xmlns:serif="http://www.serif.com/" style="fill-rule:evenodd;clip-rule:evenodd;stroke-linejoin:round;stroke-miterlimit:2;"><path d="M251.531,0l33.298,106.245l67.45,-60.003l-7.449,87.386l108.414,-41.571l-66.892,90.914l91.558,12.563l-76.739,48.966l101.892,54.406l-116.711,7.123l46.721,75.67l-88.243,-26.327l18.643,109.415l-78.644,-82.032l-33.298,81.795l-33.298,-81.795l-78.644,82.032l18.643,-109.415l-88.242,26.327l46.72,-75.67l-116.71,-7.123l101.891,-54.406l-76.738,-48.966l91.557,-12.563l-66.891,-90.914l108.413,41.571l-7.448,-87.386l67.449,60.003l33.298,-106.245Z" style="fill:#ff8e00;"/><circle cx="251.531" cy="249.393" r="114.5" style="fill:#ffd300;"/></svg>